<svg width="29" height="27" viewBox="0 0 29 27" fill="none" xmlns="http://www.w3.org/2000/svg">
<g id="Vector">
<path id="Vector_2" d="M6.3425 1C5.79021 1 5.3425 1.44772 5.3425 2V3.52689H2C1.44772 3.52689 1 3.97461 1 4.52689V7.00086C1 9.15584 1.30798 10.9457 2.06435 12.4155C2.82998 13.9033 4.00933 14.9752 5.58644 15.7699C6.55659 16.3107 7.45377 16.9828 8.25412 17.769C9.05004 18.6391 10.0198 19.3246 11.099 19.777C11.1264 19.7885 11.1544 19.7988 11.1827 19.8078L11.568 19.9302V21.1953H10.9156C9.90278 21.1953 8.95201 21.3002 8.2582 21.7847C7.45459 22.346 7.24474 23.2127 7.24474 24.0607V25C7.24474 25.5523 7.69246 26 8.24474 26H20.7342C21.2865 26 21.7342 25.5523 21.7342 25V24.1599C21.7342 23.2623 21.4522 22.4166 20.6797 21.8485C19.9778 21.3324 19.0349 21.1754 18.0186 21.1754H17.4109V19.9383L17.8054 19.8175C17.837 19.8079 17.8682 19.7966 17.8987 19.7838C18.9801 19.3312 19.9507 18.6427 20.745 17.7682C21.5838 16.9463 22.5199 16.2389 23.5303 15.6625C24.4993 15.1765 25.3627 14.4971 26.0711 13.6655C26.7858 12.8265 27.3284 11.8495 27.6683 10.7932C27.6823 10.7499 27.6932 10.7056 27.7011 10.6608C27.9155 9.44685 28.0149 8.2144 27.9982 6.98077V4.53351C27.9982 3.98122 27.5505 3.53351 26.9982 3.53351H23.6365V2C23.6365 1.44772 23.1888 1 22.6365 1H6.3425ZM14.4927 8.57912L14.8968 9.44239C15.0614 9.79387 15.4144 10.0184 15.8025 10.0184H16.4672L15.798 10.6559C15.5409 10.9008 15.433 11.2637 15.5145 11.6093L15.707 12.4262L14.9743 12.0201C14.6709 11.852 14.3022 11.853 13.9998 12.0228L13.2759 12.4294L13.4645 11.6292C13.5461 11.2831 13.4378 10.9198 13.18 10.6749L12.5101 10.0383H13.1765C13.5656 10.0383 13.9193 9.81259 14.0833 9.45978L14.4927 8.57912ZM23.6931 8.47305C23.6892 8.58162 23.681 8.68954 23.6687 8.79658L23.6713 8.05378H23.7424L23.7005 8.38245C23.6966 8.41252 23.6942 8.44275 23.6931 8.47305Z" stroke="#123E68" stroke-width="2" stroke-linecap="round" stroke-linejoin="round"/>
</g>
</svg>
